<svg width="30" height="26" viewBox="0 0 30 26" fill="none" xmlns="http://www.w3.org/2000/svg">
<path d="M28.9568 1L29.9546 0.933846C29.928 0.532703 29.6638 0.186489 29.2839 0.0549995C28.9039 -0.0764898 28.4822 0.0323144 28.2133 0.331193L28.9568 1ZM27.9599 6.91781C27.9599 6.36552 27.5122 5.91781 26.9599 5.91781C26.4076 5.91781 25.9599 6.36552 25.9599 6.91781H27.9599ZM14.9784 7.08219H13.9784V7.08219L14.9784 7.08219ZM14.9784 9L15.9784 9V9L14.9784 9ZM1 23V22C0.559465 22 0.170822 22.2883 0.0430114 22.7099C-0.0847992 23.1315 0.0783334 23.587 0.444707 23.8317L1 23ZM2.99691 1L3.93342 0.649352C3.79388 0.27668 3.44667 0.0222076 3.04927 0.00137168C2.65188 -0.0194641 2.27995 0.197302 2.10221 0.553339L2.99691 1ZM10.9846 19L11.6922 19.7066C11.9369 19.4615 12.0374 19.1072 11.9578 18.7701C11.8781 18.433 11.6298 18.1611 11.3012 18.0515L10.9846 19ZM25.4321 2.94676L24.6904 3.61745L25.0507 4.01593L25.5819 3.93549L25.4321 2.94676ZM27.959 1.06615C28.0621 2.62176 27.9667 3.56623 27.7145 4.27711C27.4698 4.96709 27.0425 5.53578 26.268 6.27798L27.6517 7.72202C28.5273 6.883 29.205 6.05755 29.5994 4.94576C29.9864 3.85487 30.0644 2.58996 29.9546 0.933846L27.959 1.06615ZM27.9599 8.37498V6.91781H25.9599V8.37498H27.9599ZM13.9784 7.08219L13.9784 9L15.9784 9L15.9784 7.08219L13.9784 7.08219ZM13.9784 9L13.9784 10L15.9784 10L15.9784 9L13.9784 9ZM21.0512 0C17.1435 0 13.9784 3.17226 13.9784 7.08219H15.9784C15.9784 4.27392 18.251 2 21.0512 2V0ZM25.9599 8.37498C25.9599 17.0059 18.9743 24 10.3605 24V26C20.0818 26 27.9599 18.1076 27.9599 8.37498H25.9599ZM2.06041 1.35065C3.14715 4.25312 7.22853 10 14.9784 10V8C8.35048 8 4.84359 3.08021 3.93342 0.649352L2.06041 1.35065ZM2.10221 0.553339C0.00875849 4.74671 -0.313793 8.81389 1.20772 12.2772C2.72576 15.7326 5.99195 18.3875 10.6679 19.9485L11.3012 18.0515C6.99107 16.6125 4.26652 14.2674 3.03881 11.4728C1.81456 8.68611 1.99124 5.25329 3.89162 1.44666L2.10221 0.553339ZM10.2769 18.2934C9.07269 19.4995 5.4522 22 1 22V24C6.13299 24 10.2339 21.1671 11.6922 19.7066L10.2769 18.2934ZM26.1739 2.27608C24.9113 0.879782 23.0833 0 21.0512 0V2C22.494 2 23.7906 2.62239 24.6904 3.61745L26.1739 2.27608ZM25.5819 3.93549C27.1029 3.70512 28.5869 2.90634 29.7002 1.66881L28.2133 0.331193C27.3976 1.23794 26.3278 1.79971 25.2824 1.95804L25.5819 3.93549ZM0.444707 23.8317C3.72608 26.0226 7.16674 26 10.3605 26V24C7.10066 24 4.26466 23.9774 1.55529 22.1683L0.444707 23.8317Z" fill="white"/>
</svg>
